<svg width="150" height="150" viewBox="0 0 150 150" fill="none" xmlns="http://www.w3.org/2000/svg">
<path d="M64.2155 99.3359C64.2155 99.3359 60.1726 104.145 59.1541 97.0532C59.1541 97.0532 58.8145 94.6891 61.6933 95.8706C64.5551 97.069 64.2155 99.3359 64.2155 99.3359Z" fill="black"/>
<path d="M83.3932 99.3359C83.3932 99.3359 87.4361 104.145 88.4546 97.0532C88.4546 97.0532 88.7942 94.6891 85.9154 95.8706C83.0535 97.069 83.3932 99.3359 83.3932 99.3359Z" fill="black"/>
<path d="M71.0711 42.6467C71.3294 42.6625 71.6046 42.6794 71.8629 42.6794H72.057C72.2183 42.6794 72.3638 42.6794 72.5262 42.6636C72.0412 42.6625 71.5561 42.6625 71.0711 42.6467Z" fill="black"/>
<path d="M117.143 61.8178C116.9 61.4292 116.658 61.0407 116.399 60.6521C115.202 58.8223 113.99 57.0411 112.729 55.3085C112.065 54.4015 111.451 53.4787 110.885 52.5559C109.673 50.5645 108.686 48.5563 107.861 46.5648C107.828 46.5976 107.797 46.6292 107.764 46.662C106.066 48.5076 103.802 50.4346 100.891 52.3942C84.3797 63.5516 52.9739 59.8264 40.2331 48.7673C31.5495 68.1498 13.7443 99.2715 14.0028 118.347C14.0186 119.837 14.4235 121.213 15.1838 122.477C15.1996 122.509 15.2165 122.525 15.2323 122.558C15.3293 122.671 15.4106 122.785 15.4907 122.898C15.5064 122.931 15.5234 122.947 15.5392 122.979C19.6306 128.274 29.9804 131.626 42.999 133.391C41.9635 124.178 47.8508 118.284 47.8508 118.284C50.3573 114.349 63.4246 122.818 69.86 127.352C69.86 127.352 69.8758 127.336 69.9243 127.287C70.4094 126.899 73.4979 124.599 77.0557 127.369C83.4752 122.835 96.5424 114.35 99.0649 118.285C99.0649 118.285 104.402 123.629 104.029 132.13C122.319 129.198 136.049 124.146 136 117.782C135.854 101.133 128.269 79.5328 117.144 61.8161L117.143 61.8178ZM47.4115 60.3449C47.4115 60.5233 47.3472 60.6205 47.2017 60.5877C47.2017 60.5877 44.6794 60.3934 44.4199 58.3366C44.3872 58.1095 44.3714 57.8509 44.4199 57.5595C44.4357 57.4138 44.4526 57.2522 44.5011 57.0896C45.1159 54.4668 47.2175 58.5467 47.4115 60.0694C47.4442 60.1834 47.4442 60.2805 47.4115 60.3449ZM90.1853 99.8727C89.6032 103.532 87.5818 107.775 83.1509 110.592C79.7714 112.713 78.024 115.514 76.8599 117.944C75.4532 119.547 74.6929 118.882 74.2891 117.911C73.9168 117.085 73.8368 116.033 73.8368 116.033C74.8554 108.681 73.5299 100.147 73.5299 100.147C73.5299 100.147 73.4814 100.503 73.3844 101.151V101.184C73.3686 101.378 73.3359 101.605 73.3032 101.848C73.2705 102.107 73.2389 102.398 73.2062 102.69C73.1577 103.24 73.0934 103.872 73.0449 104.568C72.9964 105.102 72.9479 105.669 72.9321 106.252C72.9163 106.528 72.8994 106.802 72.8836 107.078C72.7539 109.815 72.7708 112.988 73.1746 115.967V116.031C73.1746 116.031 72.2203 120.857 70.4583 118.088C70.4256 118.007 70.394 117.943 70.3455 117.861C69.9732 117.068 69.5367 116.226 68.9704 115.384C68.9061 115.271 68.8407 115.174 68.7764 115.077C67.7093 113.49 66.2372 111.903 64.1357 110.592C61.6936 109.037 59.9799 107.045 58.8318 104.956C56.2925 100.358 56.5351 95.2732 57.7962 93.3462C59.4296 90.9178 70.7979 92.7306 73.6282 93.2333C76.4584 92.7317 87.8595 90.9177 89.4602 93.3462C89.8155 93.8805 90.0907 94.6745 90.252 95.629C90.4449 96.8443 90.4447 98.3014 90.1853 99.8727ZM104.012 58.4364C103.947 58.938 103.721 59.3265 103.43 59.619C103.381 59.6676 103.333 59.7162 103.284 59.7489C103.009 60.0076 102.686 60.186 102.378 60.299C102.362 60.3148 102.33 60.3148 102.314 60.3317C101.942 60.4775 101.586 60.5418 101.392 60.5746C101.295 60.5904 101.231 60.5904 101.231 60.5904C101.086 60.6232 101.021 60.526 101.021 60.3476C101.005 60.2832 101.005 60.186 101.021 60.0561C101.037 59.9918 101.054 59.9104 101.07 59.8291C101.442 58.1608 103.35 54.5983 103.949 57.0923C103.997 57.2538 104.013 57.4165 104.03 57.5622C104.077 57.8864 104.06 58.1778 104.012 58.4364Z" fill="black"/>
<path d="M99.0941 34.4028C99.0941 34.4355 99.0783 34.4841 99.0614 34.5157C98.3823 36.3456 85.526 40.9281 72.0548 41.0579H71.8608C64.0335 41.1065 56.0289 39.6166 50.0942 35.2126C49.7389 34.9698 49.3824 34.6941 49.0429 34.4027C49.0429 34.4027 48.348 32.4916 50.0457 27.5691C50.0457 27.5691 50.3853 27.7792 51.0485 28.1191C53.0858 29.156 58.0673 31.406 65.0205 32.556C65.4898 32.6373 65.9748 32.7017 66.4599 32.7661C71.4401 33.4618 77.3104 33.5432 83.7799 32.2646C88.1465 31.4061 92.8031 29.9163 97.6063 27.5692C97.6063 27.5692 97.6706 27.7477 97.8003 28.0391C98.238 29.1878 99.2723 32.2003 99.0941 34.4028Z" fill="black"/>
<path d="M96.7521 26.0808C96.7194 26.0967 96.6709 26.1136 96.6393 26.1452C93.8575 27.635 91.0272 28.7363 88.2298 29.5292C87.826 29.6422 87.4379 29.7563 87.0329 29.8534C86.5637 29.9664 86.0955 30.0804 85.6263 30.1776C77.3138 31.9916 69.3092 31.3274 63.0667 30.0319C62.9696 30.0161 62.8884 29.9991 62.7914 29.9833C57.633 28.9148 53.6871 27.4407 51.7783 26.6638C50.9379 26.308 50.4844 26.0809 50.4844 26.0809C50.4844 26.0809 50.6942 24.2353 51.0338 21.5799C51.0496 21.3698 51.0823 21.1428 51.115 20.9158C51.1308 20.7701 51.1477 20.6085 51.1793 20.4459C51.8426 15.0864 52.877 7.36267 53.6858 4.30166C54.9639 -0.605054 59.766 0.0264658 59.766 0.0264658C75.0161 7.07005 86.9507 1.09499 91.0262 0.884916C93.3714 0.771962 94.9077 9.11115 95.7968 16.2363C95.7968 16.2848 95.8126 16.3334 95.8126 16.382C96.4624 21.579 96.7534 26.0812 96.7534 26.0812L96.7521 26.0808Z" fill="black"/>
<path d="M107.278 43.439C107.148 43.6174 107.02 43.7948 106.89 43.9574C106.76 44.1359 106.632 44.2974 106.486 44.4589C104.788 46.5158 102.395 48.6529 99.1281 50.8554C83.1832 61.623 52.3923 57.5592 41.283 46.4515V46.4357C41.1048 46.2742 40.9434 46.1115 40.7821 45.9342C40.5069 45.6269 40.2486 45.3355 40.006 45.0272C35.8987 39.9591 35.785 33.6269 42.4313 26.6486C43.9034 25.0944 45.698 23.5231 47.865 21.9362C48.3985 21.5477 48.949 21.1591 49.5141 20.7706C49.7894 20.5763 50.0635 20.382 50.3387 20.2036C50.3873 20.1708 50.42 20.1392 50.4685 20.1223C50.4685 20.155 50.4358 20.2036 50.4042 20.268C50.323 20.4622 50.1616 20.8022 49.9676 21.2721V21.2879C49.7578 21.8064 49.4826 22.4705 49.2073 23.2476C49.1746 23.329 49.143 23.4261 49.1103 23.5232C48.3827 25.6117 47.6067 28.3643 47.4769 30.9239C47.4442 31.4254 47.4442 31.9281 47.4769 32.398V32.6081C47.5582 33.6935 47.8165 34.6966 48.2857 35.5392C48.7708 36.4135 49.4826 37.142 50.4854 37.6119C54.5124 39.5061 60.6412 42.5016 70.9424 42.6473C70.9909 42.6631 71.0237 42.6631 71.0722 42.6473C71.3305 42.6631 71.6057 42.6801 71.8641 42.6801H72.0581C72.2194 42.6801 72.3649 42.6801 72.5273 42.6643C72.9639 42.6643 73.4004 42.6484 73.837 42.6315C74.0953 42.6315 74.3706 42.6157 74.6289 42.5987C75.0327 42.5829 75.4535 42.566 75.8743 42.5344C76.4078 42.5016 76.9583 42.453 77.5234 42.4045C78.9786 42.2915 80.4993 42.0972 82.0841 41.8375C82.6662 41.7561 83.2482 41.659 83.8472 41.546C88.3594 40.7689 93.4367 39.5061 99.1299 37.6109C99.1299 37.6109 100.214 37.2381 100.699 35.1655C100.763 34.8255 100.829 34.437 100.86 33.9829C101.087 31.5544 100.537 27.522 97.933 20.8997C97.836 20.641 97.739 20.3812 97.6262 20.1226C97.6589 20.1384 97.739 20.1711 97.8687 20.2355C98.127 20.3654 98.5636 20.6083 99.1299 20.9641C99.4051 21.1256 99.7119 21.3199 100.051 21.5311C100.455 21.7897 100.892 22.0811 101.345 22.4053C101.798 22.7295 102.267 23.0695 102.752 23.4422V23.458C107.764 27.4079 113.764 34.6143 107.279 43.4394L107.278 43.439Z" fill="black"/>
<path d="M72.5265 42.6611C72.3652 42.6769 72.2197 42.6769 72.0572 42.6769H71.8632C71.6049 42.6769 71.3296 42.6611 71.0713 42.6442C71.5564 42.6611 72.0414 42.6611 72.5265 42.6611Z" fill="black"/>
<path d="M71.588 134.443C71.491 134.604 71.394 134.783 71.2969 134.961C66.9145 142.636 56.7916 157.307 48.4789 145.664C37.5628 130.362 48.4789 119.432 48.4789 119.432C50.8726 115.676 63.1627 123.529 69.5507 127.999V128.014C69.6804 128.096 69.809 128.193 69.9388 128.273C69.4864 128.953 69.227 129.763 69.227 130.637C69.227 130.734 69.227 130.831 69.2428 130.913C69.324 132.354 70.1159 133.584 71.28 134.265C71.377 134.33 71.474 134.394 71.588 134.443Z" fill="black"/>
<path d="M77.0228 130.637V130.719C76.9901 132.095 76.1982 133.293 75.0171 133.86C74.5479 134.102 74.0143 134.232 73.4649 134.232C72.8987 134.232 72.3809 134.103 71.8958 133.86C70.7148 133.277 69.8902 132.046 69.8902 130.637V130.621C69.8902 129.908 70.1169 129.244 70.505 128.678C71.1355 127.707 72.2196 127.076 73.4638 127.076C74.6933 127.076 75.7763 127.707 76.4226 128.678C76.8118 129.245 77.0228 129.926 77.0228 130.637Z" fill="black"/>
<path d="M98.4154 145.665C90.0712 157.372 79.8828 142.491 75.5647 134.848C75.4835 134.703 75.4192 134.573 75.338 134.444C75.4508 134.396 75.5647 134.331 75.6617 134.266C76.8101 133.57 77.5862 132.339 77.6674 130.913C77.6832 130.832 77.6832 130.735 77.6832 130.638C77.6832 129.779 77.4249 128.969 76.9556 128.289C77.0853 128.192 77.2309 128.095 77.3594 128.014C83.7475 123.528 96.0047 115.675 98.4142 119.432C98.4154 119.433 109.332 130.363 98.4154 145.665Z" fill="black"/>
</svg>
